{
  "accessors": [
    {
      "bufferView": 2,
      "componentType": 5126,
      "count": 1904,
      "max": [1.4238300323486328, 0.7163000106811523, 2.9863181114196777],
      "min": [-1.4238300323486328, -0.8414450287818909, -5.771152973175049],
      "type": "VEC3"
    },
    {
      "bufferView": 2,
      "byteOffset": 22848,
      "componentType": 5126,
      "count": 1904,
      "max": [0.9992457032203674, 0.9939916133880615, 0.9999938011169434],
      "min": [-0.9992457032203674, -0.9996934533119202, -0.9818724989891052],
      "type": "VEC3"
    },
    {
      "bufferView": 1,
      "componentType": 5126,
      "count": 1904,
      "max": [0.875, 1.0],
      "min": [0.0, 0.0],
      "type": "VEC2"
    },
    {
      "bufferView": 0,
      "componentType": 5125,
      "count": 2838,
      "type": "SCALAR"
    }
  ],
  "asset": {
    "extras": {
      "author": "moogh (https://sketchfab.com/moogh)",
      "license": "CC-BY-4.0 (http://creativecommons.org/licenses/by/4.0/)",
      "source": "https://sketchfab.com/3d-models/low-poly-dummy-human-figure-a1cca4d43d81425ea1d328088f2a32d5",
      "title": "Low Poly Dummy / Human Figure"
    },
    "generator": "Sketchfab-12.63.0",
    "version": "2.0"
  },
  "bufferViews": [
    {
      "buffer": 0,
      "byteLength": 11352,
      "name": "floatBufferViews",
      "target": 34963
    },
    {
      "buffer": 0,
      "byteLength": 15232,
      "byteOffset": 11352,
      "byteStride": 8,
      "name": "floatBufferViews",
      "target": 34962
    },
    {
      "buffer": 0,
      "byteLength": 45696,
      "byteOffset": 26584,
      "byteStride": 12,
      "name": "floatBufferViews",
      "target": 34962
    }
  ],
  "buffers": [
    {
      "byteLength": 72280,
      "uri": "person.bin"
    }
  ],
  "materials": [
    {
      "doubleSided": true,
      "name": "Material",
      "pbrMetallicRoughness": {
        "baseColorFactor": [
          0.07919425545239529,
          0.07919425545239529,
          0.07919425545239529,
          1.0
        ],
        "metallicFactor": 0.43340234329873717
      }
    }
  ],
  "meshes": [
    {
      "name": "Object_0",
      "primitives": [
        {
          "attributes": {
            "NORMAL": 1,
            "POSITION": 0,
            "TEXCOORD_0": 2
          },
          "indices": 3,
          "material": 0,
          "mode": 4
        }
      ]
    }
  ],
  "nodes": [
    {
      "children": [1],
      "matrix": [
        1.0,
        0.0,
        0.0,
        0.0,
        0.0,
        3.828568672208042e-16,
        -1.0,
        0.0,
        0.0,
        1.0,
        3.828568672208042e-16,
        0.0,
        0.0,
        -4.930380657631324e-32,
        2.220446049250313e-16,
        1.0
      ],
      "name": "Sketchfab_model"
    },
    {
      "children": [2],
      "name": "SimpleDummy.obj.cleaner.materialmerger.gles"
    },
    {
      "mesh": 0,
      "name": "Object_2"
    }
  ],
  "scene": 0,
  "scenes": [
    {
      "name": "Sketchfab_Scene",
      "nodes": [0]
    }
  ]
}
